<?xml version="1.0" encoding="iso-8859-1"?>
<!-- Generator: Adobe Illustrator 19.0.0, SVG Export Plug-In . SVG Version: 6.00 Build 0)  -->
<svg version="1.1" id="Layer_1" xmlns="http://www.w3.org/2000/svg" xmlns:xlink="http://www.w3.org/1999/xlink" x="0px" y="0px"
	 viewBox="0 0 502 502" style="enable-background:new 0 0 502 502;" xml:space="preserve">
<g>
	<circle style="fill:#EBD2B4;" cx="251" cy="251" r="241"/>
	<path style="fill:#FF2E3D;" d="M311.877,154c-29.208,0-53.763,19.892-60.877,46.865C243.886,173.892,219.331,154,190.123,154
		c-34.773,0-62.962,28.189-62.962,62.962s38.374,65.893,62.962,90.481C220.77,338.09,251,365.818,251,365.818
		s31.898-29.396,60.877-58.375c24.588-24.588,62.962-55.709,62.962-90.481S346.65,154,311.877,154z"/>
	<g>
		<path d="M502,251c0-67.044-26.108-130.076-73.516-177.484S318.044,0,251,0S120.924,26.108,73.516,73.516
			C26.768,120.264,0.75,182.207,0.034,248.206C0.012,249.136,0,250.068,0,251c0,67.044,26.108,130.076,73.516,177.484
			S183.956,502,251,502c0.929,0,1.857-0.012,2.784-0.034c66.003-0.713,127.95-26.732,174.7-73.482
			C475.892,381.076,502,318.044,502,251z M215.761,464.89c1.823,4.659,3.708,8.871,5.658,12.642
			c-28.407-8.685-54.681-29.838-75.949-61.674c-2.594-3.883-5.079-7.885-7.464-11.99c20.407,6.987,42.162,12.039,64.761,15.006
			C206.546,436.959,210.93,452.544,215.761,464.89z M234.386,457.601c-3.894-9.95-7.493-22.311-10.702-36.604
			C232.696,421.655,241.809,422,251,422c9.191,0,18.304-0.345,27.317-1.003c-3.27,14.562-6.944,27.112-10.917,37.148
			C259.929,477.015,253.406,482,251,482C248.556,482,241.939,476.9,234.386,457.601z M280.625,477.437
			c1.847-3.58,3.637-7.55,5.371-11.929c4.926-12.442,9.4-28.24,13.242-46.635c22.592-2.966,44.34-8.016,64.741-15
			C342.017,441.767,312.679,467.526,280.625,477.437z M303.109,398.139c0.8-4.786,1.565-9.688,2.284-14.726
			c0.78-5.468-3.02-10.532-8.487-11.313c-5.468-0.782-10.532,3.019-11.313,8.487c-0.991,6.943-2.063,13.614-3.202,20.02
			C272.073,401.524,261.594,402,251,402c-10.595,0-21.075-0.477-31.394-1.393c-1.246-7.009-2.411-14.342-3.479-21.99
			c-0.763-5.47-5.816-9.282-11.287-8.521c-5.47,0.764-9.285,5.817-8.521,11.287c0.803,5.75,1.664,11.33,2.57,16.756
			c-26.435-3.988-51.487-11.018-74.213-20.816c-9.798-22.726-16.827-47.776-20.815-74.209c6.375,1.065,12.978,2.063,19.799,2.984
			c0.455,0.061,0.906,0.091,1.352,0.091c4.927,0,9.219-3.644,9.897-8.662c0.74-5.473-3.097-10.51-8.57-11.25
			c-8.714-1.177-17.041-2.477-24.946-3.881C100.477,272.076,100,261.596,100,251c0-62.417,16.148-120.965,45.471-164.858
			c21.268-31.836,47.542-52.989,75.949-61.674c-1.95,3.771-3.835,7.982-5.658,12.642c-7.915,20.223-14.637,49.1-19.441,83.507
			c-0.764,5.47,3.051,10.523,8.521,11.287c5.469,0.76,10.522-3.051,11.287-8.521c4.591-32.883,10.905-60.195,18.258-78.984
			C241.939,25.1,248.556,20,251,20s9.061,5.099,16.614,24.399c3.894,9.95,7.493,22.311,10.702,36.604
			C269.304,80.345,260.191,80,251,80c-5.523,0-10,4.477-10,10s4.477,10,10,10c10.595,0,21.074,0.477,31.393,1.393
			c1.246,7.009,2.411,14.341,3.479,21.99c0.698,5.001,4.981,8.619,9.891,8.619c0.46,0,0.927-0.032,1.396-0.098
			c5.47-0.764,9.285-5.817,8.521-11.287c-0.803-5.75-1.664-11.33-2.57-16.756c26.435,3.988,51.487,11.018,74.214,20.816
			C393.382,161.926,402,205.427,402,251c0,3.305-0.039,3.779-0.134,4.924c-0.074,0.896-0.175,2.124-0.296,4.583
			c-0.272,5.516,3.979,10.208,9.496,10.48c5.507,0.269,10.208-3.979,10.48-9.496c0.105-2.129,0.187-3.123,0.253-3.922
			c0.136-1.648,0.202-2.616,0.202-6.57c0-9.194-0.346-18.311-1.004-27.327C470.395,234.745,482,247.227,482,251
			c0,2.539-5.385,9.389-25.768,17.142c-19.734,7.507-48.277,13.869-82.543,18.4c-5.476,0.724-9.327,5.749-8.603,11.224
			c0.665,5.031,4.96,8.69,9.901,8.69c0.437,0,0.879-0.028,1.323-0.087c35.778-4.73,65.873-11.485,87.033-19.534
			c5.283-2.01,10.005-4.096,14.191-6.262c-8.684,28.41-29.838,54.686-61.676,75.956
			C384.459,377.505,345.559,391.735,303.109,398.139z M83.127,202.757c-23.26,4.848-41.945,10.603-55.581,17.135
			c-1.031,0.494-2.023,0.994-2.996,1.499c9.901-32.083,35.655-61.419,73.583-83.386C91.146,158.408,86.094,180.161,83.127,202.757z
			 M81.003,223.675C80.345,232.69,80,241.806,80,251c0,9.193,0.345,18.308,1.003,27.323c-13.899-3.121-25.965-6.613-35.785-10.39
			C25.271,260.258,20,253.501,20,251C20,247.245,31.58,234.755,81.003,223.675z M38.038,286.599
			c12.199,4.693,27.457,8.949,45.088,12.632c2.967,22.6,8.019,44.356,15.006,64.763c-4.104-2.385-8.107-4.871-11.99-7.464
			c-31.838-21.269-52.992-47.545-61.676-75.954C28.488,282.656,33.005,284.662,38.038,286.599z M286.239,37.11
			c-1.824-4.66-3.708-8.871-5.658-12.642c28.407,8.685,54.681,29.838,75.949,61.674c2.594,3.883,5.079,7.885,7.464,11.99
			c-20.407-6.988-42.163-12.04-64.762-15.006C295.454,65.04,291.07,49.456,286.239,37.11z M403.868,138.006
			c4.104,2.385,8.107,4.871,11.99,7.464c31.839,21.27,52.994,47.547,61.677,75.958c-1.094-0.568-2.223-1.13-3.389-1.684
			c-13.614-6.473-32.195-12.176-55.272-16.986C415.906,180.163,410.855,158.41,403.868,138.006z M462.811,158.873
			c-10.122-10.78-22.104-20.853-35.844-30.032c-10.751-7.182-22.307-13.619-34.517-19.292c-5.672-12.21-12.109-23.766-19.291-34.517
			c-9.179-13.74-19.252-25.722-30.032-35.844C396.541,62.511,439.489,105.458,462.811,158.873z M158.873,39.188
			c-10.78,10.122-20.853,22.104-30.032,35.844c-7.188,10.759-13.629,22.325-19.305,34.546
			c-28.617,13.268-52.413,30.166-70.431,49.485C62.409,105.56,105.395,62.539,158.873,39.188z M39.189,343.127
			c10.122,10.78,22.104,20.853,35.844,30.032c10.751,7.182,22.307,13.619,34.517,19.292c5.672,12.21,12.109,23.766,19.291,34.517
			c9.179,13.74,19.252,25.722,30.032,35.844C105.459,439.489,62.511,396.542,39.189,343.127z M342.891,462.915
			c19.34-18.023,36.257-41.828,49.529-70.45c12.221-5.676,23.788-12.118,34.547-19.305c13.74-9.179,25.722-19.252,35.844-30.032
			C439.455,396.62,396.415,439.616,342.891,462.915z"/>
		<path d="M163.224,110.813c0.829,0,1.672-0.104,2.512-0.321c3.744-0.969,7.581-1.885,11.406-2.724
			c5.395-1.183,8.809-6.516,7.626-11.91c-1.183-5.395-6.52-8.809-11.91-7.626c-4.067,0.892-8.149,1.867-12.133,2.898
			c-5.347,1.384-8.56,6.84-7.176,12.187C154.716,107.823,158.775,110.813,163.224,110.813z"/>
		<path d="M407.088,312.198c-5.413-1.093-10.689,2.403-11.786,7.817c-1.39,6.866-3.013,13.714-4.823,20.354
			c-1.453,5.329,1.689,10.826,7.018,12.278c0.881,0.24,1.766,0.354,2.636,0.354c4.398,0,8.429-2.924,9.642-7.372
			c1.926-7.066,3.652-14.349,5.13-21.646C416,318.571,412.501,313.294,407.088,312.198z"/>
		<path d="M311.877,144c-24.988,0-47.644,12.726-60.877,32.722C237.767,156.726,215.111,144,190.123,144
			c-40.231,0-72.961,32.73-72.961,72.962c0,34.088,30.418,63.324,54.859,86.816c3.911,3.759,7.605,7.31,11.031,10.736
			c30.448,30.447,60.885,58.395,61.188,58.673c1.913,1.754,4.336,2.631,6.76,2.631c2.431,0,4.863-0.882,6.777-2.646
			c0.32-0.295,32.381-29.867,61.171-58.658c3.425-3.426,7.12-6.977,11.031-10.736c24.441-23.492,54.859-52.729,54.859-86.816
			C384.838,176.73,352.108,144,311.877,144z M316.12,289.359c-3.985,3.83-7.749,7.447-11.314,11.013
			c-20.6,20.601-42.914,41.626-53.816,51.805c-10.617-9.891-32.207-30.216-53.795-51.805c-3.565-3.565-7.329-7.183-11.314-11.013
			c-21.706-20.862-48.719-46.827-48.719-72.397c0-29.203,23.758-52.962,52.961-52.962c24.03,0,45.087,16.208,51.208,39.416
			c1.158,4.391,5.129,7.45,9.669,7.45s8.511-3.059,9.669-7.45C266.79,180.208,287.847,164,311.877,164
			c29.203,0,52.961,23.759,52.961,52.962C364.838,242.532,337.825,268.497,316.12,289.359z"/>
		<path d="M316.98,242.878l-9,8.872c-3.933,3.877-3.979,10.208-0.102,14.142c1.957,1.985,4.539,2.98,7.122,2.98
			c2.535,0,5.072-0.958,7.02-2.878l9-8.872c3.933-3.877,3.979-10.208,0.102-14.142C327.244,239.046,320.913,239,316.98,242.878z"/>
		<path d="M284.516,274.878l-37.536,37c-3.933,3.877-3.979,10.208-0.102,14.142c1.957,1.985,4.539,2.98,7.122,2.98
			c2.535,0,5.072-0.958,7.02-2.878l37.536-37c3.933-3.877,3.979-10.208,0.102-14.142S288.448,271,284.516,274.878z"/>
	</g>
</g>
<g>
</g>
<g>
</g>
<g>
</g>
<g>
</g>
<g>
</g>
<g>
</g>
<g>
</g>
<g>
</g>
<g>
</g>
<g>
</g>
<g>
</g>
<g>
</g>
<g>
</g>
<g>
</g>
<g>
</g>
</svg>
